<svg width="36" height="36" viewBox="0 0 36 36" fill="none" xmlns="http://www.w3.org/2000/svg">
<g id="icon">
<g id="Vector">
<path d="M18 33C15.0333 33 12.1332 32.1203 9.66645 30.472C7.19971 28.8238 5.27712 26.4811 4.14181 23.7403C3.00649 20.9994 2.70944 17.9834 3.28822 15.0736C3.867 12.1639 5.29561 9.49119 7.3934 7.3934C9.49119 5.29561 12.1639 3.867 15.0736 3.28822C17.9834 2.70944 20.9994 3.00649 23.7403 4.14181C26.4811 5.27712 28.8238 7.19971 30.472 9.66645C32.1203 12.1332 33 15.0333 33 18C33 21.9782 31.4196 25.7936 28.6066 28.6066C25.7936 31.4196 21.9782 33 18 33ZM18 5.73C15.5732 5.73 13.2009 6.44962 11.1832 7.79787C9.16536 9.14611 7.59269 11.0624 6.664 13.3045C5.73531 15.5465 5.49232 18.0136 5.96576 20.3938C6.43921 22.7739 7.60781 24.9602 9.3238 26.6762C11.0398 28.3922 13.2261 29.5608 15.6062 30.0342C17.9864 30.5077 20.4535 30.2647 22.6955 29.336C24.9376 28.4073 26.8539 26.8346 28.2021 24.8168C29.5504 22.7991 30.27 20.4268 30.27 18C30.266 14.747 28.972 11.6284 26.6718 9.32818C24.3716 7.02797 21.253 5.73397 18 5.73Z" fill="#000000"/>
<path d="M19.5 16.5H16.5C16.3026 16.5011 16.1069 16.4633 15.9241 16.3887C15.7414 16.314 15.5752 16.204 15.435 16.065C15.2944 15.9256 15.1828 15.7597 15.1067 15.5769C15.0305 15.3941 14.9913 15.198 14.9913 15C14.9913 14.802 15.0305 14.6059 15.1067 14.4231C15.1828 14.2403 15.2944 14.0744 15.435 13.935C15.5752 13.796 15.7414 13.686 15.9241 13.6113C16.1069 13.5367 16.3026 13.4989 16.5 13.5H22.5C22.8978 13.5 23.2794 13.342 23.5607 13.0607C23.842 12.7794 24 12.3978 24 12C24 11.6022 23.842 11.2206 23.5607 10.9393C23.2794 10.658 22.8978 10.5 22.5 10.5H19.5C19.5 10.1022 19.342 9.72064 19.0607 9.43934C18.7794 9.15804 18.3978 9 18 9C17.6022 9 17.2206 9.15804 16.9393 9.43934C16.658 9.72064 16.5 10.1022 16.5 10.5C15.3065 10.5 14.1619 10.9741 13.318 11.818C12.4741 12.6619 12 13.8065 12 15C12 16.1935 12.4741 17.3381 13.318 18.182C14.1619 19.0259 15.3065 19.5 16.5 19.5H19.5C19.8978 19.5 20.2794 19.658 20.5607 19.9393C20.842 20.2206 21 20.6022 21 21C21 21.3978 20.842 21.7794 20.5607 22.0607C20.2794 22.342 19.8978 22.5 19.5 22.5H13.5C13.1022 22.5 12.7206 22.658 12.4393 22.9393C12.158 23.2206 12 23.6022 12 24C12 24.3978 12.158 24.7794 12.4393 25.0607C12.7206 25.342 13.1022 25.5 13.5 25.5H16.5C16.5 25.8978 16.658 26.2794 16.9393 26.5607C17.2206 26.842 17.6022 27 18 27C18.3978 27 18.7794 26.842 19.0607 26.5607C19.342 26.2794 19.5 25.8978 19.5 25.5C20.6935 25.5 21.8381 25.0259 22.682 24.182C23.5259 23.3381 24 22.1935 24 21C24 19.8065 23.5259 18.6619 22.682 17.818C21.8381 16.9741 20.6935 16.5 19.5 16.5Z" fill="#000000"/>
</g>
</g>
</svg>
